<?xml version="1.0" encoding="UTF-8" standalone="no"?><!DOCTYPE svg PUBLIC "-//W3C//DTD SVG 1.1//EN" "http://www.w3.org/Graphics/SVG/1.1/DTD/svg11.dtd"><svg width="100%" height="100%" viewBox="0 0 100 100" version="1.1" xmlns="http://www.w3.org/2000/svg" xmlns:xlink="http://www.w3.org/1999/xlink" xml:space="preserve" xmlns:serif="http://www.serif.com/" style="fill-rule:evenodd;clip-rule:evenodd;stroke-linecap:round;"><path d="M50,0c27.614,0 50,22.384 50,49.997c0,27.612 -22.386,49.997 -50,49.997c-27.614,0 -50,-22.384 -50,-49.997c0,-27.612 22.386,-49.997 50,-49.997Zm0,4.545c-25.104,0 -45.455,20.349 -45.455,45.452c-0,25.102 20.351,45.452 45.455,45.452c25.104,0 45.455,-20.349 45.455,-45.452c0,-25.102 -20.351,-45.452 -45.455,-45.452Z" style="fill:#f5f5f5;fill-rule:nonzero;"/><ellipse cx="50" cy="49.997" rx="45.455" ry="45.452" style="fill:#488e66;"/><path d="M32.692,48.109l14.551,22.632c0.386,0.6 1.281,0.542 1.587,-0.103l20.085,-42.475" style="fill:none;fill-rule:nonzero;stroke:#fff;stroke-width:9.09px;"/></svg>