<?xml version="1.0" encoding="UTF-8" standalone="no"?><!DOCTYPE svg PUBLIC "-//W3C//DTD SVG 1.1//EN" "http://www.w3.org/Graphics/SVG/1.1/DTD/svg11.dtd"><svg width="100%" height="100%" viewBox="0 0 100 100" version="1.1" xmlns="http://www.w3.org/2000/svg" xmlns:xlink="http://www.w3.org/1999/xlink" xml:space="preserve" xmlns:serif="http://www.serif.com/" style="fill-rule:evenodd;clip-rule:evenodd;stroke-linejoin:round;stroke-miterlimit:2;"><path d="M50,0c27.614,0 50,22.386 50,50c0,27.614 -22.386,50 -50,50c-27.614,0 -50,-22.386 -50,-50c0,-27.614 22.386,-50 50,-50Zm0,4.545c-25.104,0 -45.455,20.351 -45.455,45.455c-0,25.104 20.351,45.455 45.455,45.455c25.104,0 45.455,-20.351 45.455,-45.455c0,-25.104 -20.351,-45.455 -45.455,-45.455Z" style="fill:#f5f5f5;fill-rule:nonzero;"/><circle cx="50" cy="50" r="45.455" style="fill:#488e66;"/><path d="M66.364,45.942c2.424,1.4 2.424,4.899 0,6.298l-23.182,13.384c-2.424,1.4 -5.455,-0.35 -5.455,-3.149l0,-26.768c0,-2.799 3.03,-4.549 5.455,-3.149l23.182,13.384Z" style="fill:#f5f5f5;fill-rule:nonzero;"/></svg>