<?xml version="1.0" encoding="UTF-8" standalone="no"?><!DOCTYPE svg PUBLIC "-//W3C//DTD SVG 1.1//EN" "http://www.w3.org/Graphics/SVG/1.1/DTD/svg11.dtd"><svg width="100%" height="100%" viewBox="0 0 100 100" version="1.1" xmlns="http://www.w3.org/2000/svg" xmlns:xlink="http://www.w3.org/1999/xlink" xml:space="preserve" xmlns:serif="http://www.serif.com/" style="fill-rule:evenodd;clip-rule:evenodd;stroke-linejoin:round;stroke-miterlimit:2;"><path d="M50,0c27.614,0 50,22.386 50,50c0,27.614 -22.386,50 -50,50c-27.614,0 -50,-22.386 -50,-50c0,-27.614 22.386,-50 50,-50Zm0,4.545c-25.104,0 -45.455,20.351 -45.455,45.455c-0,25.104 20.351,45.455 45.455,45.455c25.104,0 45.455,-20.351 45.455,-45.455c0,-25.104 -20.351,-45.455 -45.455,-45.455Z" style="fill:#f5f5f5;fill-rule:nonzero;"/><circle cx="50" cy="50" r="45.455" style="fill:#488e66;"/><path d="M50.956,23.636c5.98,0 11.479,2.06 15.827,5.508c-0.014,-0.017 -0.027,-0.036 -0.041,-0.053c0.774,0.617 1.51,1.279 2.207,1.98c0.695,0.692 1.352,1.423 1.964,2.191c-0.018,-0.014 -0.037,-0.028 -0.055,-0.043c3.448,4.349 5.51,9.848 5.51,15.829c-0.001,14.083 -11.418,25.5 -25.501,25.501c-5.799,0 -11.147,-1.936 -15.431,-5.197l-1.399,5.227c-0.362,1.352 -2.052,1.805 -3.041,0.815l-9.464,-9.464c-0.989,-0.99 -0.537,-2.679 0.815,-3.041l6.159,-1.651c-1.945,-3.601 -3.051,-7.721 -3.051,-12.101c0.001,-14.083 11.417,-25.5 25.501,-25.501Zm4.08,4.08c-14.083,0.001 -25.5,11.417 -25.501,25.501c0,2.591 0.388,5.091 1.106,7.447l4.632,-1.239c1.352,-0.362 2.589,0.875 2.227,2.227l-1.697,6.33c3.327,1.591 7.05,2.488 10.984,2.488c14.083,-0.001 25.5,-11.417 25.501,-25.501c0,-4.929 -1.401,-9.53 -3.823,-13.43c-3.9,-2.421 -8.501,-3.821 -13.429,-3.821Z" style="fill:#f5f5f5;"/></svg>