<?xml version="1.0" encoding="UTF-8" standalone="no"?><!DOCTYPE svg PUBLIC "-//W3C//DTD SVG 1.1//EN" "http://www.w3.org/Graphics/SVG/1.1/DTD/svg11.dtd"><svg width="100%" height="100%" viewBox="0 0 100 100" version="1.1" xmlns="http://www.w3.org/2000/svg" xmlns:xlink="http://www.w3.org/1999/xlink" xml:space="preserve" xmlns:serif="http://www.serif.com/" style="fill-rule:evenodd;clip-rule:evenodd;stroke-linejoin:round;stroke-miterlimit:2;"><path d="M50,0c27.614,0 50,22.384 50,49.997c0,27.612 -22.386,49.997 -50,49.997c-27.614,0 -50,-22.384 -50,-49.997c0,-27.612 22.386,-49.997 50,-49.997Zm0,4.545c-25.104,0 -45.455,20.349 -45.455,45.452c-0,25.102 20.351,45.452 45.455,45.452c25.104,0 45.455,-20.349 45.455,-45.452c0,-25.102 -20.351,-45.452 -45.455,-45.452Z" style="fill:#f5f5f5;fill-rule:nonzero;"/><ellipse cx="50" cy="49.997" rx="45.455" ry="45.452" style="fill:#488e66;"/><path d="M43.519,20.335c1.212,-0.7 2.727,0.175 2.727,1.575l0,3.547c14.53,0.756 26.08,12.778 26.08,27.495c-0.001,13.375 -9.541,24.519 -22.187,27.008c9.219,-4.45 15.579,-13.885 15.579,-24.807c0,-12.4 -8.199,-22.883 -19.471,-26.33l0,6.47c-0,1.399 -1.515,2.273 -2.727,1.573l-11.591,-6.69c-1.212,-0.7 -1.212,-2.45 0,-3.15l11.591,-6.692Z" style="fill:#f5f5f5;fill-rule:nonzero;"/></svg>