<?xml version="1.0" encoding="UTF-8" standalone="no"?><!DOCTYPE svg PUBLIC "-//W3C//DTD SVG 1.1//EN" "http://www.w3.org/Graphics/SVG/1.1/DTD/svg11.dtd"><svg width="100%" height="100%" viewBox="0 0 100 100" version="1.1" xmlns="http://www.w3.org/2000/svg" xmlns:xlink="http://www.w3.org/1999/xlink" xml:space="preserve" xmlns:serif="http://www.serif.com/" style="fill-rule:evenodd;clip-rule:evenodd;stroke-linejoin:round;stroke-miterlimit:2;"><path d="M50,0c27.614,0 50,22.386 50,50c0,27.614 -22.386,50 -50,50c-27.614,0 -50,-22.386 -50,-50c0,-27.614 22.386,-50 50,-50Zm0,4.545c-25.104,0 -45.455,20.351 -45.455,45.455c-0,25.104 20.351,45.455 45.455,45.455c25.104,0 45.455,-20.351 45.455,-45.455c0,-25.104 -20.351,-45.455 -45.455,-45.455Z" style="fill:#f5f5f5;fill-rule:nonzero;"/><circle cx="50" cy="50" r="45.455" style="fill:#488e66;"/><path d="M28.219,54.45c-3.42,-2.136 -3.42,-7.118 0,-9.254l4.164,-2.599c1.538,-0.961 2.497,-2.624 2.56,-4.437l0.171,-4.906c0.14,-4.03 4.453,-6.519 8.013,-4.625l4.334,2.305c1.602,0.852 3.523,0.852 5.124,0l4.333,-2.305c3.56,-1.894 7.873,0.595 8.013,4.625l0.17,4.906c0.063,1.813 1.023,3.476 2.562,4.437l4.162,2.599c3.42,2.136 3.42,7.118 0,9.254l-4.162,2.599c-1.539,0.961 -2.499,2.624 -2.562,4.437l-0.17,4.906c-0.14,4.03 -4.453,6.519 -8.013,4.625l-4.333,-2.305c-1.601,-0.852 -3.523,-0.852 -5.124,0l-4.334,2.305c-3.56,1.894 -7.873,-0.595 -8.013,-4.625l-0.171,-4.906c-0.063,-1.813 -1.022,-3.476 -2.56,-4.437l-4.164,-2.599Zm12.067,-4.627c0,5.378 4.359,9.737 9.737,9.737c5.377,-0 9.737,-4.36 9.737,-9.737c0,-5.378 -4.36,-9.737 -9.737,-9.737c-5.378,0 -9.737,4.359 -9.737,9.737Z" style="fill:#f5f5f5;"/></svg>